<?xml version="1.0" standalone="no"?>
<!DOCTYPE svg PUBLIC "-//W3C//DTD SVG 20010904//EN"
 "http://www.w3.org/TR/2001/REC-SVG-20010904/DTD/svg10.dtd">
<svg version="1.0" xmlns="http://www.w3.org/2000/svg"
 width="512.000000pt" height="512.000000pt" viewBox="0 0 512.000000 512.000000"
 preserveAspectRatio="xMidYMid meet">
<metadata>
Created by potrace 1.14, written by Peter Selinger 2001-2017
</metadata>
<g transform="translate(0.000000,512.000000) scale(0.100000,-0.100000)"
fill="#000000" stroke="none">
<path d="M0 2560 l0 -2560 2560 0 2560 0 0 2560 0 2560 -2560 0 -2560 0 0
-2560z m2464 1863 c69 -118 183 -348 226 -458 31 -81 102 -349 116 -441 l7
-49 24 54 c13 29 55 95 92 145 38 50 86 120 107 156 53 91 277 320 314 320 56
0 58 -8 66 -225 7 -218 9 -202 -59 -425 -19 -63 -37 -132 -41 -152 l-7 -36
180 68 c209 80 276 101 296 94 24 -9 38 -72 33 -145 -4 -55 -14 -88 -50 -162
-67 -136 -122 -204 -235 -289 -54 -41 -135 -102 -180 -136 -46 -35 -100 -86
-121 -115 -106 -143 -189 -263 -205 -293 -22 -43 -43 -165 -33 -190 6 -14 17
11 41 98 l33 117 153 166 c85 91 178 195 206 230 59 71 99 91 166 82 45 -6 86
-32 105 -68 20 -36 8 -103 -42 -252 -25 -72 -53 -161 -61 -197 -30 -118 -75
-188 -189 -292 -160 -145 -251 -189 -481 -230 -86 -16 -482 -16 -750 -1 -173
10 -195 13 -252 38 -69 31 -82 57 -38 77 20 9 44 9 103 -1 95 -15 861 -20 937
-5 40 7 51 13 53 31 2 16 -5 26 -28 38 -23 12 -40 36 -70 101 -34 75 -52 98
-158 204 -182 182 -470 416 -489 396 -17 -16 -14 -96 5 -139 11 -25 28 -71 37
-103 31 -107 200 -395 241 -411 24 -9 87 -104 76 -115 -7 -7 -42 -3 -103 11
-57 12 -150 22 -234 25 -152 6 -233 21 -316 60 -105 49 -233 127 -280 171 -28
26 -58 45 -71 45 -73 1 -187 97 -323 272 -85 110 -87 113 -82 157 4 33 13 52
31 68 42 36 67 37 163 9 64 -19 110 -26 168 -25 77 0 79 1 55 16 -52 34 -230
223 -261 278 -18 32 -48 67 -69 81 -59 39 -77 101 -42 142 23 28 113 62 162
62 22 0 57 -9 77 -20 22 -12 57 -20 84 -20 43 0 176 -21 219 -35 15 -5 14 3
-6 62 -23 68 -147 555 -159 625 -6 29 -3 40 14 57 38 38 74 28 149 -42 79 -74
124 -106 252 -177 52 -30 132 -78 178 -107 45 -29 87 -53 92 -53 8 0 17 36 34
139 14 81 18 450 6 611 -7 93 -10 177 -6 185 3 10 19 15 44 15 37 0 39 -1 96
-97z m497 -2774 c68 -11 146 -30 173 -41 28 -12 78 -26 111 -32 l60 -11 3 -39
c5 -64 -35 -72 -165 -32 -119 36 -323 69 -374 61 -66 -10 -129 -30 -210 -66
-102 -44 -162 -59 -245 -59 -81 0 -124 13 -242 72 -80 41 -86 42 -175 41 -97
-2 -107 3 -107 45 0 18 10 28 44 43 100 44 181 33 328 -44 74 -39 86 -42 156
-41 61 0 90 6 142 28 229 98 302 109 501 75z m-845 -321 l204 -52 192 33 c106
17 229 39 273 47 80 15 126 13 235 -8 60 -11 90 -31 90 -59 0 -31 -34 -39
-160 -39 -99 0 -152 -6 -298 -36 -235 -48 -346 -54 -440 -25 -147 44 -235 84
-279 124 -41 38 -55 67 -32 67 6 0 102 -23 215 -52z m154 -283 c62 -12 151
-17 325 -18 222 -1 247 1 332 22 50 13 99 21 107 18 9 -4 21 -18 28 -32 9 -21
8 -28 -7 -45 -23 -26 -116 -54 -230 -70 -165 -23 -636 5 -726 43 -19 8 -45 26
-58 40 -60 65 24 80 229 42z m363 -316 c293 3 347 1 347 -11 0 -20 -79 -56
-158 -73 -101 -21 -429 -48 -498 -41 -71 7 -148 31 -165 52 -16 19 -15 64 2
75 8 6 38 6 69 2 30 -4 211 -6 403 -4z"/>
<path d="M2456 4190 c-2 -8 -7 -118 -10 -245 -4 -231 -11 -280 -52 -409 -12
-38 -15 -61 -8 -63 19 -6 70 -47 184 -145 62 -54 117 -98 123 -98 6 0 8 52 4
148 -5 130 -11 167 -50 322 -56 223 -176 531 -191 490z"/>
<path d="M3215 3873 c-37 -43 -98 -123 -136 -178 -38 -55 -85 -122 -104 -150
-20 -27 -47 -87 -62 -133 -21 -69 -32 -88 -63 -114 -27 -21 -40 -40 -44 -66
-4 -21 -14 -60 -22 -88 l-16 -51 41 -62 c22 -35 53 -94 68 -132 15 -38 30 -69
33 -69 3 0 37 49 77 108 76 113 128 211 167 314 35 94 124 397 130 443 12 92
16 255 7 255 -5 0 -40 -35 -76 -77z"/>
<path d="M1756 3738 c4 -18 22 -87 40 -153 19 -66 34 -131 34 -146 0 -33 51
-192 79 -247 11 -21 27 -45 37 -53 9 -8 50 -63 89 -124 84 -127 99 -142 181
-183 34 -17 72 -44 85 -59 13 -16 65 -56 114 -90 97 -67 380 -313 416 -363 13
-16 26 -30 31 -30 13 0 -2 310 -19 369 -8 30 -30 85 -49 122 -18 37 -42 90
-53 118 -29 77 -146 253 -204 308 -29 27 -92 80 -142 118 -49 38 -120 96 -156
130 -36 33 -105 83 -153 110 -48 28 -139 83 -203 123 -64 40 -120 75 -125 78
-4 3 -5 -10 -2 -28z"/>
<path d="M3575 3297 c-66 -21 -134 -45 -151 -52 -41 -17 -181 -147 -223 -205
-18 -25 -77 -108 -132 -185 -112 -157 -106 -137 -85 -325 l12 -105 23 45 c13
25 55 98 93 162 74 126 90 142 273 280 110 83 181 151 226 219 31 46 92 186
87 197 -2 4 -57 -10 -123 -31z"/>
<path d="M1346 3161 c-17 -6 -15 -9 12 -20 34 -14 60 -40 106 -104 78 -110
138 -174 221 -237 50 -38 120 -95 156 -128 59 -52 77 -62 148 -81 45 -12 90
-21 99 -19 14 3 19 21 26 92 l9 89 -65 61 c-36 33 -93 102 -127 153 -33 51
-69 96 -79 101 -43 23 -243 62 -318 62 -63 0 -84 4 -104 20 -26 20 -52 24 -84
11z"/>
<path d="M3539 2712 c-30 -13 -269 -234 -304 -283 -50 -67 -72 -123 -95 -235
-11 -55 -32 -129 -46 -167 -15 -37 -25 -70 -21 -73 3 -3 38 11 79 32 99 52
269 218 291 284 103 314 126 390 127 433 0 18 -5 20 -31 9z"/>
<path d="M1300 2632 c0 -16 157 -198 201 -234 54 -43 76 -55 141 -75 35 -10
67 -30 103 -63 28 -27 100 -77 160 -111 117 -66 203 -90 368 -103 l79 -6 -25
43 c-13 23 -55 101 -92 172 -95 181 -102 188 -208 205 -36 5 -103 26 -148 45
-45 20 -109 40 -143 44 -34 5 -79 17 -101 27 -28 12 -70 18 -140 19 -81 1
-107 6 -140 23 -43 24 -55 27 -55 14z"/>
</g>
</svg>
